<?xml version="1.0" standalone="no"?>
<!DOCTYPE svg PUBLIC "-//W3C//DTD SVG 20010904//EN"
 "http://www.w3.org/TR/2001/REC-SVG-20010904/DTD/svg10.dtd">
<svg version="1.0" xmlns="http://www.w3.org/2000/svg"
 width="612.000000pt" height="612.000000pt" viewBox="0 0 612.000000 612.000000"
 preserveAspectRatio="xMidYMid meet">
<metadata>
Created by potrace 1.11, written by Peter Selinger 2001-2013
</metadata>
<g transform="translate(0.000000,612.000000) scale(0.100000,-0.100000)"
fill="#000000" stroke="none">
<path d="M2977 6114 c-1 -1 -56 -5 -122 -9 -66 -3 -122 -8 -125 -10 -3 -1 -32
-5 -65 -9 -64 -7 -96 -12 -123 -20 -9 -3 -35 -8 -57 -12 -22 -3 -47 -7 -55 -8
-16 -3 -79 -19 -145 -37 -49 -14 -59 -16 -65 -17 -12 -1 -157 -54 -172 -62
-10 -6 -22 -10 -28 -10 -10 0 -48 -16 -147 -62 -27 -12 -50 -22 -53 -23 -3 -1
-43 -21 -90 -45 -47 -25 -89 -47 -95 -49 -5 -2 -12 -7 -15 -10 -3 -3 -21 -15
-40 -25 -88 -48 -323 -213 -377 -265 -12 -11 -24 -21 -27 -21 -2 0 -20 -15
-39 -32 -18 -18 -69 -67 -113 -108 -44 -41 -115 -115 -158 -165 -105 -120
-118 -136 -138 -166 -9 -14 -23 -32 -30 -40 -22 -23 -162 -239 -210 -324 -72
-128 -188 -381 -188 -411 0 -8 -4 -14 -10 -14 -5 0 -9 -3 -8 -7 1 -5 -15 -62
-36 -128 -59 -186 -63 -201 -90 -340 -47 -243 -60 -373 -60 -625 0 -177 7
-286 30 -438 8 -54 17 -113 19 -134 3 -20 9 -48 15 -62 5 -14 8 -26 6 -26 -2
0 5 -33 15 -72 11 -40 22 -84 25 -98 6 -28 79 -253 93 -285 29 -67 35 -81 36
-90 2 -5 31 -68 65 -140 201 -417 506 -798 850 -1065 36 -27 70 -54 76 -59 29
-24 173 -121 180 -121 4 0 15 -7 25 -16 33 -30 369 -204 395 -204 8 0 14 -5
14 -12 0 -6 3 -9 6 -5 4 3 18 0 33 -7 36 -19 320 -113 361 -120 8 -1 24 -5 35
-9 11 -3 31 -8 45 -11 14 -3 50 -10 80 -16 65 -13 90 -17 150 -24 25 -3 54 -8
65 -10 122 -24 568 -23 679 0 11 3 45 7 74 10 102 9 348 67 497 116 195 65
428 170 564 253 9 6 39 23 66 40 28 16 52 32 55 35 3 3 22 16 43 29 21 13 43
28 50 34 7 7 28 23 47 37 49 34 87 64 203 164 65 55 205 195 264 264 26 30 55
63 64 73 9 9 36 43 60 75 23 33 45 61 49 64 15 12 162 244 207 325 53 96 120
234 125 257 2 7 5 15 8 18 13 13 30 52 30 70 0 11 4 20 8 20 5 0 9 6 9 13 1 6
15 50 32 97 40 106 96 308 115 410 1 8 6 35 11 60 4 25 9 54 12 65 2 11 6 38
8 60 2 23 6 54 9 70 26 141 25 637 0 746 -3 13 -7 41 -7 61 -1 21 -6 38 -10
38 -5 0 -6 3 -3 8 2 4 0 30 -5 57 -6 28 -12 61 -13 75 -2 14 -12 54 -21 90 -9
36 -18 72 -20 80 -8 42 -46 168 -62 210 -3 8 -7 21 -9 28 -3 18 -84 221 -98
247 -6 11 -11 22 -11 25 -3 12 -69 141 -105 205 -22 39 -43 77 -47 85 -25 55
-197 299 -278 395 -231 275 -538 533 -805 678 -30 16 -61 35 -69 41 -7 5 -19
11 -25 12 -7 1 -31 14 -54 28 -23 14 -45 26 -50 26 -5 0 -35 13 -68 28 -120
57 -415 160 -509 176 -16 3 -50 10 -75 16 -25 6 -54 12 -65 15 -37 8 -250 35
-320 40 -65 6 -294 12 -298 9z"/>
</g>
</svg>
