<?xml version="1.0" standalone="no"?>
<!DOCTYPE svg PUBLIC "-//W3C//DTD SVG 20010904//EN"
 "http://www.w3.org/TR/2001/REC-SVG-20010904/DTD/svg10.dtd">
<svg version="1.0" xmlns="http://www.w3.org/2000/svg"
 width="592.000000pt" height="592.000000pt" viewBox="0 0 592.000000 592.000000"
 preserveAspectRatio="xMidYMid meet">
<metadata>
Created by potrace 1.11, written by Peter Selinger 2001-2013
</metadata>
<g transform="translate(0.000000,592.000000) scale(0.100000,-0.100000)"
fill="#000000" stroke="none">
<path d="M2718 5704 c-4 -3 -87 -13 -161 -19 -32 -3 -62 -7 -65 -9 -4 -2 -29
-7 -57 -10 -27 -4 -57 -9 -65 -11 -15 -4 -34 -8 -95 -21 -63 -13 -274 -74
-360 -104 -397 -139 -775 -374 -1085 -674 -81 -79 -189 -199 -240 -267 -14
-18 -36 -47 -50 -63 -40 -49 -70 -94 -70 -106 0 -5 -5 -10 -10 -10 -6 0 -13
-8 -17 -17 -4 -10 -18 -36 -33 -58 -15 -22 -42 -69 -61 -105 -19 -36 -36 -67
-39 -70 -29 -29 -189 -433 -204 -515 -3 -14 -7 -28 -9 -32 -5 -8 -51 -232 -61
-293 -28 -179 -28 -607 -1 -734 2 -12 7 -39 10 -61 12 -88 53 -266 76 -325 5
-14 11 -34 13 -45 8 -37 55 -161 94 -251 96 -218 218 -420 362 -598 30 -37 62
-78 70 -90 22 -31 235 -243 300 -298 92 -79 102 -87 185 -148 168 -124 388
-249 588 -334 94 -40 282 -110 327 -121 8 -3 35 -9 60 -16 25 -6 52 -13 60
-16 8 -3 20 -7 25 -8 28 -7 173 -37 195 -41 14 -2 41 -7 60 -10 19 -3 50 -8
68 -10 17 -2 49 -6 70 -9 181 -25 623 -25 747 0 11 2 40 7 65 10 25 3 56 7 70
10 14 2 38 6 54 9 160 28 370 86 536 148 120 45 321 138 332 153 4 5 8 7 8 3
0 -14 316 181 393 242 204 162 344 291 437 400 11 14 31 36 44 50 12 14 45 54
71 90 27 36 52 67 55 70 12 11 110 159 110 166 0 4 6 15 14 23 25 28 102 174
175 332 30 65 117 316 125 361 3 13 5 23 6 23 1 0 3 7 5 15 8 33 35 167 39
190 3 14 5 25 6 25 1 0 3 18 5 40 2 22 7 54 11 70 13 58 12 536 -1 625 -20
132 -23 153 -29 183 -3 15 -8 37 -10 50 -9 46 -58 232 -64 242 -4 6 -7 15 -8
20 -14 81 -182 444 -255 553 -16 24 -29 45 -29 48 0 10 -169 243 -203 279 -7
7 -28 32 -47 55 -99 119 -281 288 -430 401 -47 35 -86 67 -88 71 -2 5 -9 8
-16 8 -7 0 -21 8 -32 18 -10 9 -31 23 -46 31 -16 8 -28 18 -28 23 0 4 -9 8
-19 8 -11 0 -21 4 -23 9 -3 8 -144 91 -155 91 -3 0 -19 10 -36 22 -18 13 -33
22 -35 20 -1 -1 -37 14 -79 34 -43 20 -107 47 -143 61 -36 14 -74 29 -85 33
-53 22 -251 83 -308 95 -10 2 -26 6 -35 9 -17 5 -61 14 -97 20 -11 2 -31 7
-45 10 -14 4 -38 9 -55 11 -16 2 -30 4 -30 5 0 1 -13 3 -30 5 -16 1 -52 6 -80
9 -107 15 -178 19 -407 21 -131 1 -239 1 -240 -1z"/>
</g>
</svg>
