<?xml version="1.0" standalone="no"?>
<!DOCTYPE svg PUBLIC "-//W3C//DTD SVG 20010904//EN"
 "http://www.w3.org/TR/2001/REC-SVG-20010904/DTD/svg10.dtd">
<svg version="1.0" xmlns="http://www.w3.org/2000/svg"
 width="592.000000pt" height="592.000000pt" viewBox="0 0 592.000000 592.000000"
 preserveAspectRatio="xMidYMid meet">
<metadata>
Created by potrace 1.11, written by Peter Selinger 2001-2013
</metadata>
<g transform="translate(0.000000,592.000000) scale(0.100000,-0.100000)"
fill="#000000" stroke="none">
<path d="M2877 5894 c-1 -1 -49 -4 -107 -8 -58 -3 -118 -8 -135 -10 -16 -3
-52 -7 -80 -10 -27 -3 -61 -8 -75 -11 -14 -3 -40 -8 -59 -11 -40 -7 -52 -9
-111 -23 -25 -5 -56 -12 -70 -15 -73 -14 -307 -91 -387 -127 -24 -10 -45 -19
-48 -19 -9 0 -249 -114 -255 -120 -3 -4 -34 -22 -70 -42 -141 -78 -303 -192
-445 -312 -82 -70 -285 -272 -335 -335 -19 -24 -40 -48 -46 -55 -19 -21 -164
-217 -164 -222 0 -3 -13 -24 -29 -47 -34 -51 -75 -119 -99 -167 -9 -19 -19
-37 -22 -40 -11 -11 -80 -161 -123 -265 -51 -125 -127 -360 -117 -360 1 0 -3
-12 -9 -28 -6 -15 -13 -39 -16 -54 -2 -15 -9 -49 -14 -77 -42 -213 -55 -352
-54 -581 0 -157 6 -281 17 -347 4 -18 8 -49 10 -68 6 -48 15 -100 23 -130 3
-14 7 -32 8 -40 6 -37 17 -88 27 -125 5 -22 11 -44 13 -50 1 -5 4 -17 7 -25 3
-8 18 -55 34 -105 34 -109 89 -252 105 -271 6 -8 9 -14 5 -14 -24 0 219 -423
307 -535 4 -5 28 -37 53 -70 104 -136 303 -344 424 -443 36 -29 74 -60 84 -69
11 -9 52 -39 90 -67 39 -28 72 -54 74 -58 2 -5 8 -8 13 -8 6 0 37 -18 69 -40
32 -22 62 -40 66 -40 4 0 15 -6 23 -14 19 -17 311 -164 349 -176 15 -5 60 -22
101 -39 40 -17 81 -31 90 -31 9 0 21 -4 27 -8 7 -7 74 -30 109 -38 6 -1 47
-12 93 -23 73 -19 135 -33 207 -46 33 -6 177 -27 225 -32 76 -9 520 -9 600 1
41 4 89 10 105 11 17 2 55 8 85 14 30 6 69 13 85 16 150 26 367 90 552 164 93
37 372 177 399 199 6 6 26 18 45 27 19 10 36 21 39 24 3 3 43 32 90 63 47 31
94 65 105 75 11 10 35 29 52 41 99 70 370 341 473 473 19 24 38 46 42 47 4 2
8 9 8 16 0 7 8 21 18 32 30 34 72 92 72 101 0 5 9 19 20 31 11 11 29 38 41 59
11 21 31 56 44 78 33 53 106 203 105 211 -1 4 2 10 7 13 5 3 19 31 32 61 30
75 37 90 51 125 15 36 60 168 71 210 4 17 17 63 27 102 11 40 18 73 16 73 -3
0 0 8 5 18 5 10 12 38 16 62 3 25 8 52 10 60 5 20 17 96 21 140 2 19 7 64 11
100 10 84 10 454 0 545 -4 39 -10 93 -13 120 -3 28 -7 57 -10 65 -3 8 -8 32
-11 54 -3 21 -16 84 -29 140 -13 55 -27 112 -30 126 -26 118 -136 395 -219
555 -77 148 -88 167 -108 189 -10 11 -20 31 -23 43 -4 13 -9 23 -13 23 -4 0
-13 10 -18 23 -6 12 -18 31 -27 42 -9 11 -40 52 -69 91 -94 128 -202 250 -326
368 -29 28 -63 60 -75 71 -91 88 -378 293 -501 359 -27 15 -58 31 -67 37 -111
59 -199 99 -403 180 -51 20 -213 67 -242 70 -5 1 -15 5 -23 9 -8 4 -31 11 -50
14 -20 3 -64 12 -99 20 -36 8 -68 13 -72 10 -4 -2 -10 -1 -13 4 -4 7 -44 13
-103 16 -13 1 -23 3 -23 6 0 3 -24 6 -53 7 -28 1 -79 5 -112 8 -58 5 -293 13
-298 9z"/>
</g>
</svg>
